<svg width="2031" height="1026" viewBox="0 0 2031 1026" fill="none" xmlns="http://www.w3.org/2000/svg">
<path d="M73.8 643.5H121.5C129.9 643.5 136.8 641.5 142.2 637.5C147.6 633.5 150.3 627 150.3 618C150.3 613 149.4 608.9 147.6 605.7C145.8 602.5 143.4 600 140.4 598.2C137.4 596.4 133.9 595.2 129.9 594.6C126.1 593.8 122.1 593.4 117.9 593.4H73.8V643.5ZM26.7 556.8H127.5C137.7 556.8 147 557.7 155.4 559.5C163.8 561.3 171 564.3 177 568.5C183 572.5 187.6 577.9 190.8 584.7C194.2 591.5 195.9 599.9 195.9 609.9C195.9 620.7 193.4 629.7 188.4 636.9C183.6 644.1 176.4 650 166.8 654.6C180 658.4 189.8 665.1 196.2 674.7C202.8 684.1 206.1 695.5 206.1 708.9C206.1 719.7 204 729.1 199.8 737.1C195.6 744.9 189.9 751.3 182.7 756.3C175.7 761.3 167.6 765 158.4 767.4C149.4 769.8 140.1 771 130.5 771H26.7V556.8ZM73.8 734.4H124.2C128.8 734.4 133.2 734 137.4 733.2C141.6 732.2 145.3 730.7 148.5 728.7C151.7 726.5 154.2 723.6 156 720C158 716.4 159 711.8 159 706.2C159 695.2 155.9 687.4 149.7 682.8C143.5 678 135.3 675.6 125.1 675.6H73.8V734.4ZM378.93 771H338.43V749.4H337.53C332.13 758.4 325.13 764.9 316.53 768.9C307.93 772.9 299.13 774.9 290.13 774.9C278.73 774.9 269.33 773.4 261.93 770.4C254.73 767.4 249.03 763.2 244.83 757.8C240.63 752.2 237.63 745.5 235.83 737.7C234.23 729.7 233.43 720.9 233.43 711.3V615.9H276.03V703.5C276.03 716.3 278.03 725.9 282.03 732.3C286.03 738.5 293.13 741.6 303.33 741.6C314.93 741.6 323.33 738.2 328.53 731.4C333.73 724.4 336.33 713 336.33 697.2V615.9H378.93V771ZM516.863 670.5C514.063 652.7 503.563 643.8 485.363 643.8C478.563 643.8 472.863 645.4 468.263 648.6C463.663 651.6 459.863 655.6 456.863 660.6C454.063 665.4 452.063 670.8 450.863 676.8C449.663 682.6 449.063 688.4 449.063 694.2C449.063 699.8 449.663 705.5 450.863 711.3C452.063 717.1 453.963 722.4 456.563 727.2C459.363 731.8 463.063 735.6 467.663 738.6C472.263 741.6 477.863 743.1 484.463 743.1C494.663 743.1 502.463 740.3 507.863 734.7C513.463 728.9 516.963 721.2 518.363 711.6H559.463C556.663 732.2 548.663 747.9 535.463 758.7C522.263 769.5 505.363 774.9 484.763 774.9C473.163 774.9 462.463 773 452.663 769.2C443.063 765.2 434.863 759.7 428.063 752.7C421.263 745.7 415.963 737.4 412.163 727.8C408.363 718 406.463 707.3 406.463 695.7C406.463 683.7 408.163 672.6 411.563 662.4C415.163 652 420.363 643.1 427.163 635.7C433.963 628.1 442.263 622.2 452.063 618C461.863 613.8 473.063 611.7 485.663 611.7C494.863 611.7 503.663 612.9 512.063 615.3C520.663 617.7 528.263 621.4 534.863 626.4C541.663 631.2 547.163 637.3 551.363 644.7C555.563 651.9 557.963 660.5 558.563 670.5H516.863ZM583.528 556.8H626.128V637.5H627.028C632.428 628.5 639.328 622 647.728 618C656.128 613.8 664.328 611.7 672.328 611.7C683.728 611.7 693.028 613.3 700.228 616.5C707.628 619.5 713.428 623.8 717.628 629.4C721.828 634.8 724.728 641.5 726.328 649.5C728.128 657.3 729.028 666 729.028 675.6V771H686.428V683.4C686.428 670.6 684.428 661.1 680.428 654.9C676.428 648.5 669.328 645.3 659.128 645.3C647.528 645.3 639.128 648.8 633.928 655.8C628.728 662.6 626.128 673.9 626.128 689.7V771H583.528V556.8ZM759.56 663.6C760.16 653.6 762.66 645.3 767.06 638.7C771.46 632.1 777.06 626.8 783.86 622.8C790.66 618.8 798.26 616 806.66 614.4C815.26 612.6 823.86 611.7 832.46 611.7C840.26 611.7 848.16 612.3 856.16 613.5C864.16 614.5 871.46 616.6 878.06 619.8C884.66 623 890.06 627.5 894.26 633.3C898.46 638.9 900.56 646.4 900.56 655.8V736.5C900.56 743.5 900.96 750.2 901.76 756.6C902.56 763 903.96 767.8 905.96 771H862.76C861.96 768.6 861.26 766.2 860.66 763.8C860.26 761.2 859.96 758.6 859.76 756C852.96 763 844.96 767.9 835.76 770.7C826.56 773.5 817.16 774.9 807.56 774.9C800.16 774.9 793.26 774 786.86 772.2C780.46 770.4 774.86 767.6 770.06 763.8C765.26 760 761.46 755.2 758.66 749.4C756.06 743.6 754.76 736.7 754.76 728.7C754.76 719.9 756.26 712.7 759.26 707.1C762.46 701.3 766.46 696.7 771.26 693.3C776.26 689.9 781.86 687.4 788.06 685.8C794.46 684 800.86 682.6 807.26 681.6C813.66 680.6 819.96 679.8 826.16 679.2C832.36 678.6 837.86 677.7 842.66 676.5C847.46 675.3 851.26 673.6 854.06 671.4C856.86 669 858.16 665.6 857.96 661.2C857.96 656.6 857.16 653 855.56 650.4C854.16 647.6 852.16 645.5 849.56 644.1C847.16 642.5 844.26 641.5 840.86 641.1C837.66 640.5 834.16 640.2 830.36 640.2C821.96 640.2 815.36 642 810.56 645.6C805.76 649.2 802.96 655.2 802.16 663.6H759.56ZM857.96 695.1C856.16 696.7 853.86 698 851.06 699C848.46 699.8 845.56 700.5 842.36 701.1C839.36 701.7 836.16 702.2 832.76 702.6C829.36 703 825.96 703.5 822.56 704.1C819.36 704.7 816.16 705.5 812.96 706.5C809.96 707.5 807.26 708.9 804.86 710.7C802.66 712.3 800.86 714.4 799.46 717C798.06 719.6 797.36 722.9 797.36 726.9C797.36 730.7 798.06 733.9 799.46 736.5C800.86 739.1 802.76 741.2 805.16 742.8C807.56 744.2 810.36 745.2 813.56 745.8C816.76 746.4 820.06 746.7 823.46 746.7C831.86 746.7 838.36 745.3 842.96 742.5C847.56 739.7 850.96 736.4 853.16 732.6C855.36 728.6 856.66 724.6 857.06 720.6C857.66 716.6 857.96 713.4 857.96 711V695.1ZM933.626 615.9H974.126V644.7H974.726C976.726 639.9 979.426 635.5 982.826 631.5C986.226 627.3 990.126 623.8 994.526 621C998.926 618 1003.63 615.7 1008.63 614.1C1013.63 612.5 1018.83 611.7 1024.23 611.7C1027.03 611.7 1030.13 612.2 1033.53 613.2V652.8C1031.53 652.4 1029.13 652.1 1026.33 651.9C1023.53 651.5 1020.83 651.3 1018.23 651.3C1010.43 651.3 1003.83 652.6 998.426 655.2C993.026 657.8 988.626 661.4 985.226 666C982.026 670.4 979.726 675.6 978.326 681.6C976.926 687.6 976.226 694.1 976.226 701.1V771H933.626V615.9ZM1149.35 676.8C1147.35 666 1143.75 657.8 1138.55 652.2C1133.55 646.6 1125.85 643.8 1115.45 643.8C1108.65 643.8 1102.95 645 1098.35 647.4C1093.95 649.6 1090.35 652.4 1087.55 655.8C1084.95 659.2 1083.05 662.8 1081.85 666.6C1080.85 670.4 1080.25 673.8 1080.05 676.8H1149.35ZM1080.05 703.8C1080.65 717.6 1084.15 727.6 1090.55 733.8C1096.95 740 1106.15 743.1 1118.15 743.1C1126.75 743.1 1134.15 741 1140.35 736.8C1146.55 732.4 1150.35 727.8 1151.75 723H1189.25C1183.25 741.6 1174.05 754.9 1161.65 762.9C1149.25 770.9 1134.25 774.9 1116.65 774.9C1104.45 774.9 1093.45 773 1083.65 769.2C1073.85 765.2 1065.55 759.6 1058.75 752.4C1051.95 745.2 1046.65 736.6 1042.85 726.6C1039.25 716.6 1037.45 705.6 1037.45 693.6C1037.45 682 1039.35 671.2 1043.15 661.2C1046.95 651.2 1052.35 642.6 1059.35 635.4C1066.35 628 1074.65 622.2 1084.25 618C1094.05 613.8 1104.85 611.7 1116.65 611.7C1129.85 611.7 1141.35 614.3 1151.15 619.5C1160.95 624.5 1168.95 631.3 1175.15 639.9C1181.55 648.5 1186.15 658.3 1188.95 669.3C1191.75 680.3 1192.75 691.8 1191.95 703.8H1080.05ZM1250.22 720.6C1250.22 725.2 1251.12 729.2 1252.92 732.6C1254.92 735.8 1257.42 738.5 1260.42 740.7C1263.42 742.7 1266.82 744.2 1270.62 745.2C1274.62 746.2 1278.72 746.7 1282.92 746.7C1285.92 746.7 1289.02 746.4 1292.22 745.8C1295.62 745 1298.62 743.9 1301.22 742.5C1304.02 740.9 1306.32 738.9 1308.12 736.5C1309.92 733.9 1310.82 730.7 1310.82 726.9C1310.82 720.5 1306.52 715.7 1297.92 712.5C1289.52 709.3 1277.72 706.1 1262.52 702.9C1256.32 701.5 1250.22 699.9 1244.22 698.1C1238.42 696.1 1233.22 693.6 1228.62 690.6C1224.02 687.4 1220.32 683.5 1217.52 678.9C1214.72 674.1 1213.32 668.3 1213.32 661.5C1213.32 651.5 1215.22 643.3 1219.02 636.9C1223.02 630.5 1228.22 625.5 1234.62 621.9C1241.02 618.1 1248.22 615.5 1256.22 614.1C1264.22 612.5 1272.42 611.7 1280.82 611.7C1289.22 611.7 1297.32 612.5 1305.12 614.1C1313.12 615.7 1320.22 618.4 1326.42 622.2C1332.62 626 1337.72 631.1 1341.72 637.5C1345.92 643.7 1348.42 651.6 1349.22 661.2H1308.72C1308.12 653 1305.02 647.5 1299.42 644.7C1293.82 641.7 1287.22 640.2 1279.62 640.2C1277.22 640.2 1274.62 640.4 1271.82 640.8C1269.02 641 1266.42 641.6 1264.02 642.6C1261.82 643.6 1259.92 645.1 1258.32 647.1C1256.72 648.9 1255.92 651.4 1255.92 654.6C1255.92 658.4 1257.32 661.5 1260.12 663.9C1262.92 666.3 1266.52 668.3 1270.92 669.9C1275.52 671.3 1280.72 672.6 1286.52 673.8C1292.32 675 1298.22 676.3 1304.22 677.7C1310.42 679.1 1316.42 680.8 1322.22 682.8C1328.22 684.8 1333.52 687.5 1338.12 690.9C1342.72 694.1 1346.42 698.2 1349.22 703.2C1352.02 708 1353.42 714 1353.42 721.2C1353.42 731.4 1351.32 740 1347.12 747C1343.12 753.8 1337.82 759.3 1331.22 763.5C1324.62 767.7 1317.02 770.6 1308.42 772.2C1300.02 774 1291.42 774.9 1282.62 774.9C1273.62 774.9 1264.82 774 1256.22 772.2C1247.62 770.4 1239.92 767.4 1233.12 763.2C1226.52 759 1221.02 753.5 1216.62 746.7C1212.42 739.7 1210.12 731 1209.72 720.6H1250.22ZM1432.35 615.9H1463.55V644.4H1432.35V721.2C1432.35 728.4 1433.55 733.2 1435.95 735.6C1438.35 738 1443.15 739.2 1450.35 739.2C1452.75 739.2 1455.05 739.1 1457.25 738.9C1459.45 738.7 1461.55 738.4 1463.55 738V771C1459.95 771.6 1455.95 772 1451.55 772.2C1447.15 772.4 1442.85 772.5 1438.65 772.5C1432.05 772.5 1425.75 772 1419.75 771C1413.95 770.2 1408.75 768.5 1404.15 765.9C1399.75 763.3 1396.25 759.6 1393.65 754.8C1391.05 750 1389.75 743.7 1389.75 735.9V644.4H1363.95V615.9H1389.75V569.4H1432.35V615.9Z" fill="#27A8E0"/>
<path d="M20.1348 97.5585V62.7372H59.22V97.5585H87.1718V125.274H59.22V182.362C59.22 188.205 60.3254 192.074 62.5363 193.969C64.9051 195.864 69.4058 196.811 76.0385 196.811H87.1718V225H62.2994C46.0337 225 34.9003 222.631 28.8994 217.894C23.0563 213.156 20.1348 203.602 20.1348 189.231V125.274H0V97.5585H20.1348ZM197.673 184.967H233.678C228.309 199.18 219.781 209.919 208.095 217.183C196.409 224.447 183.776 228.079 170.195 228.079C149.191 228.079 132.294 222.078 119.502 210.077C106.711 197.917 100.315 181.414 100.315 160.569C100.315 140.671 106.869 124.563 119.976 112.245C133.241 99.9274 149.428 93.7685 168.536 93.7685C189.54 93.7685 206.042 100.954 218.044 115.325C230.046 129.695 235.416 148.33 234.152 171.228H139.637C140.269 179.756 143.348 186.31 148.875 190.889C154.561 195.469 161.272 197.759 169.01 197.759C183.065 197.759 192.619 193.495 197.673 184.967ZM168.536 123.615C161.114 123.615 154.718 125.589 149.349 129.537C144.138 133.485 141.058 139.486 140.111 147.54H195.304C194.988 139.802 192.382 133.88 187.487 129.774C182.591 125.668 176.275 123.615 168.536 123.615ZM314.432 93.7685C324.065 93.7685 332.909 95.2687 340.963 98.2692C349.175 101.112 356.755 106.481 363.703 114.377C370.652 122.115 375.31 132.064 377.679 144.224H341.2C338.041 130.801 329.908 124.089 316.801 124.089C308.905 124.089 302.272 127.09 296.903 133.091C291.692 138.934 289.086 148.172 289.086 160.806C289.086 173.597 291.692 182.993 296.903 188.994C302.272 194.837 308.905 197.759 316.801 197.759C331.014 197.759 339.699 191.205 342.858 178.098H379.337C375.231 195.469 367.099 208.182 354.939 216.235C342.779 224.131 329.277 228.079 314.432 228.079C293.745 228.079 277.716 222 266.346 209.84C254.975 197.68 249.29 181.256 249.29 160.569C249.29 140.355 255.291 124.168 267.293 112.008C279.295 99.8484 295.008 93.7685 314.432 93.7685ZM437.066 53.262V114.377C440.224 109.008 445.278 104.428 452.226 100.638C459.175 96.69 467.308 94.716 476.625 94.716C492.417 94.716 503.471 99.1378 509.788 107.981C516.263 116.825 519.5 130.327 519.5 148.488V225H480.415V158.2C480.415 153.62 480.336 150.067 480.178 147.54C480.02 145.014 479.625 142.092 478.994 138.776C478.362 135.459 477.335 133.012 475.914 131.432C474.651 129.695 472.756 128.195 470.229 126.932C467.702 125.668 464.623 125.037 460.991 125.037C452.621 125.037 446.541 127.8 442.751 133.327C438.961 138.855 437.066 147.619 437.066 159.621V225H397.981V53.262H437.066ZM659.992 134.986H623.513C621.302 126.774 613.011 122.668 598.64 122.668C585.059 122.668 578.269 125.826 578.269 132.143C578.269 135.144 579.453 137.512 581.822 139.249C584.348 140.987 588.375 142.408 593.903 143.513L617.591 147.777C633.541 150.778 645.069 155.041 652.175 160.569C659.281 165.938 662.835 174.071 662.835 184.967C662.835 198.864 657.15 209.524 645.779 216.946C634.409 224.368 619.565 228.079 601.246 228.079C584.033 228.079 569.82 224.289 558.607 216.709C547.553 209.129 540.92 198.075 538.71 183.546H574.952C578.111 194.285 587.033 199.654 601.72 199.654C608.984 199.654 614.748 198.706 619.012 196.811C623.276 194.758 625.408 191.916 625.408 188.284C625.408 185.283 623.907 182.914 620.907 181.177C617.906 179.282 612.774 177.703 605.51 176.44L582.769 172.65C569.82 170.597 559.634 166.333 552.212 159.858C544.947 153.225 541.315 144.461 541.315 133.564C541.315 121.404 546.921 111.85 558.134 104.902C569.346 97.7954 583.164 94.2422 599.588 94.2422C615.38 94.2422 628.803 97.6375 639.857 104.428C650.912 111.061 657.623 121.247 659.992 134.986ZM690.292 97.5585V62.7372H729.378V97.5585H757.329V125.274H729.378V182.362C729.378 188.205 730.483 192.074 732.694 193.969C735.063 195.864 739.563 196.811 746.196 196.811H757.329V225H732.457C716.191 225 705.058 222.631 699.057 217.894C693.214 213.156 690.292 203.602 690.292 189.231V125.274H670.158V97.5585H690.292ZM855.986 145.408V140.434C855.986 133.012 854.249 127.8 850.775 124.8C847.301 121.641 841.852 120.062 834.43 120.062C821.007 120.062 813.427 126.3 811.69 138.776H775.21C776.158 126.142 782.238 115.482 793.45 106.797C804.82 97.9534 819.586 93.5316 837.746 93.5316C856.697 93.5316 870.989 97.7954 880.622 106.323C890.255 114.693 894.914 128.274 894.598 147.066L894.124 174.781V188.047C894.124 204.628 895.071 216.946 896.966 225H858.592L858.118 209.603C849.433 221.921 835.141 228.079 815.243 228.079C802.767 228.079 792.266 224.684 783.738 217.894C775.368 211.103 771.183 202.023 771.183 190.652C771.183 183.072 773.157 176.519 777.105 170.991C781.211 165.464 787.212 161.042 795.108 157.726C803.162 154.252 812.006 151.567 821.639 149.672C831.272 147.777 842.721 146.356 855.986 145.408ZM856.934 171.465V168.386C849.196 169.175 842.879 169.965 837.983 170.754C833.246 171.386 828.666 172.413 824.244 173.834C819.823 175.255 816.585 177.15 814.532 179.519C812.479 181.73 811.453 184.494 811.453 187.81C811.453 191.916 813.111 195.232 816.427 197.759C819.902 200.286 824.244 201.549 829.456 201.549C847.774 201.549 856.934 191.521 856.934 171.465ZM997.802 96.8479V134.986C994.801 134.512 991.248 134.275 987.142 134.275C977.351 134.275 970.087 136.328 965.349 140.434C960.769 144.54 958.479 151.409 958.479 161.042V225H919.394V97.5585H957.058V121.72C963.375 105.612 974.982 97.2427 991.88 96.611H994.722C996.143 96.611 997.17 96.69 997.802 96.8479ZM1127.97 134.986H1091.49C1089.28 126.774 1080.99 122.668 1066.62 122.668C1053.04 122.668 1046.25 125.826 1046.25 132.143C1046.25 135.144 1047.43 137.512 1049.8 139.249C1052.33 140.987 1056.35 142.408 1061.88 143.513L1085.57 147.777C1101.52 150.778 1113.05 155.041 1120.15 160.569C1127.26 165.938 1130.81 174.071 1130.81 184.967C1130.81 198.864 1125.13 209.524 1113.76 216.946C1102.39 224.368 1087.54 228.079 1069.22 228.079C1052.01 228.079 1037.8 224.289 1026.58 216.709C1015.53 209.129 1008.9 198.075 1006.69 183.546H1042.93C1046.09 194.285 1055.01 199.654 1069.7 199.654C1076.96 199.654 1082.72 198.706 1086.99 196.811C1091.25 194.758 1093.38 191.916 1093.38 188.284C1093.38 185.283 1091.88 182.914 1088.88 181.177C1085.88 179.282 1080.75 177.703 1073.49 176.44L1050.75 172.65C1037.8 170.597 1027.61 166.333 1020.19 159.858C1012.92 153.225 1009.29 144.461 1009.29 133.564C1009.29 121.404 1014.9 111.85 1026.11 104.902C1037.32 97.7954 1051.14 94.2422 1067.56 94.2422C1083.36 94.2422 1096.78 97.6375 1107.83 104.428C1118.89 111.061 1125.6 121.247 1127.97 134.986ZM1245.29 257.926H1139.88V225H1245.29V257.926Z" fill="black"/>
<path d="M149.708 351.727H109.675C107.622 345.252 103.596 340.277 97.5946 336.803C91.7515 333.329 84.4872 331.592 75.8016 331.592C67.5898 331.592 60.9571 333.092 55.9037 336.092C51.0082 338.935 48.5604 342.962 48.5604 348.173C48.5604 352.437 50.2975 356.069 53.7718 359.07C57.4039 362.07 62.2994 364.202 68.4583 365.466L91.9094 370.203C99.0158 371.624 104.859 372.967 109.439 374.23C114.018 375.336 119.466 377.231 125.783 379.915C132.1 382.6 137.075 385.6 140.707 388.917C144.497 392.075 147.734 396.418 150.419 401.945C153.261 407.314 154.683 413.473 154.683 420.422C154.683 437.477 147.418 451.137 132.89 461.402C118.519 471.667 101.779 476.799 82.6711 476.799C60.5623 476.799 42.6384 471.667 28.8994 461.402C15.1603 450.979 6.7116 436.451 3.5532 417.816H43.8228C48.2446 435.345 61.5098 444.11 83.6186 444.11C91.6726 444.11 98.5421 442.609 104.227 439.609C110.07 436.609 112.992 431.871 112.992 425.396C112.992 420.185 110.228 416 104.701 412.842C99.3317 409.683 91.4357 406.999 81.013 404.788L60.1675 400.524C24.6355 393.259 6.86952 376.599 6.86952 350.542C6.86952 339.488 10.5017 329.934 17.766 321.88C25.1882 313.826 34.1107 308.062 44.5334 304.587C55.1141 300.955 66.3264 299.139 78.1704 299.139C89.8565 299.139 100.595 300.876 110.386 304.351C120.177 307.667 128.705 313.431 135.969 321.643C143.391 329.697 147.971 339.725 149.708 351.727ZM179.52 346.278V311.457H218.605V346.278H246.557V373.993H218.605V431.081C218.605 436.924 219.711 440.793 221.921 442.688C224.29 444.583 228.791 445.531 235.424 445.531H246.557V473.72H221.685C205.419 473.72 194.285 471.351 188.284 466.613C182.441 461.876 179.52 452.322 179.52 437.951V373.993H159.385V346.278H179.52ZM345.214 394.128V389.154C345.214 381.731 343.477 376.52 340.002 373.519C336.528 370.361 331.08 368.782 323.658 368.782C310.234 368.782 302.654 375.02 300.917 387.495H264.438C265.385 374.862 271.465 364.202 282.677 355.517C294.048 346.673 308.813 342.251 326.974 342.251C345.924 342.251 360.216 346.515 369.849 355.043C379.482 363.413 384.141 376.994 383.825 395.786L383.351 423.501V436.766C383.351 453.348 384.299 465.666 386.194 473.72H347.819L347.346 458.323C338.66 470.64 324.368 476.799 304.47 476.799C291.995 476.799 281.493 473.404 272.965 466.613C264.596 459.823 260.411 450.742 260.411 439.372C260.411 431.792 262.385 425.238 266.333 419.711C270.439 414.184 276.44 409.762 284.336 406.446C292.39 402.972 301.233 400.287 310.866 398.392C320.499 396.497 331.948 395.076 345.214 394.128ZM346.161 420.185V417.105C338.423 417.895 332.106 418.685 327.211 419.474C322.473 420.106 317.894 421.132 313.472 422.554C309.05 423.975 305.813 425.87 303.76 428.239C301.707 430.45 300.68 433.213 300.68 436.53C300.68 440.635 302.338 443.952 305.655 446.479C309.129 449.005 313.472 450.269 318.683 450.269C337.002 450.269 346.161 440.241 346.161 420.185ZM487.029 345.568V383.705C484.029 383.232 480.475 382.995 476.369 382.995C466.578 382.995 459.314 385.048 454.576 389.154C449.997 393.259 447.707 400.129 447.707 409.762V473.72H408.622V346.278H446.286V370.44C452.602 354.332 464.21 345.962 481.107 345.331H483.95C485.371 345.331 486.397 345.41 487.029 345.568ZM509.856 346.278V311.457H548.942V346.278H576.893V373.993H548.942V431.081C548.942 436.924 550.047 440.793 552.258 442.688C554.627 444.583 559.127 445.531 565.76 445.531H576.893V473.72H552.021C535.755 473.72 524.622 471.351 518.621 466.613C512.778 461.876 509.856 452.322 509.856 437.951V373.993H489.722V346.278H509.856ZM676.498 473.72V455.954C672.234 462.744 667.26 467.956 661.574 471.588C655.889 475.062 648.388 476.799 639.071 476.799C622.805 476.799 611.356 472.377 604.723 463.534C598.248 454.69 595.011 441.188 595.011 423.027V346.278H634.096V413.315C634.096 417.895 634.175 421.448 634.333 423.975C634.491 426.502 634.886 429.423 635.518 432.739C636.149 436.056 637.097 438.583 638.36 440.32C639.781 441.899 641.755 443.32 644.282 444.583C646.809 445.847 649.888 446.479 653.52 446.479C661.89 446.479 667.812 443.952 671.286 438.898C674.761 433.845 676.498 425.396 676.498 413.552V346.278H715.583V473.72H676.498ZM782.901 346.278V363.571C786.849 356.938 792.456 351.963 799.72 348.647C806.984 345.173 814.406 343.436 821.987 343.436C838.726 343.436 852.228 349.437 862.493 361.439C872.916 373.283 878.127 389.469 878.127 409.999C878.127 430.529 872.916 446.794 862.493 458.796C852.228 470.798 838.726 476.799 821.987 476.799C814.406 476.799 806.984 475.141 799.72 471.825C792.456 468.35 786.849 463.297 782.901 456.664V515.174H743.816V346.278H782.901ZM809.195 373.756C800.825 373.756 794.035 376.678 788.823 382.521C783.612 388.364 781.006 397.523 781.006 409.999C781.006 422.475 783.612 431.713 788.823 437.714C794.035 443.557 800.825 446.479 809.195 446.479C817.407 446.479 824.197 443.241 829.567 436.766C834.936 430.292 837.621 421.369 837.621 409.999C837.621 398.629 834.936 389.785 829.567 383.468C824.197 376.994 817.407 373.756 809.195 373.756ZM1064.37 301.982L1089.72 421.132L1111.27 301.982H1151.78L1112.93 473.72H1069.34L1043.29 352.674L1017.47 473.72H974.119L934.797 301.982H975.777L999.228 420.659L1022.44 301.982H1064.37ZM1248.37 433.687H1284.37C1279 447.9 1270.47 458.638 1258.79 465.903C1247.1 473.167 1234.47 476.799 1220.89 476.799C1199.88 476.799 1182.99 470.798 1170.19 458.796C1157.4 446.636 1151.01 430.134 1151.01 409.288C1151.01 389.39 1157.56 373.283 1170.67 360.965C1183.93 348.647 1200.12 342.488 1219.23 342.488C1240.23 342.488 1256.73 349.674 1268.74 364.044C1280.74 378.415 1286.11 397.05 1284.84 419.948H1190.33C1190.96 428.476 1194.04 435.029 1199.57 439.609C1205.25 444.189 1211.96 446.479 1219.7 446.479C1233.76 446.479 1243.31 442.215 1248.37 433.687ZM1219.23 372.335C1211.81 372.335 1205.41 374.309 1200.04 378.257C1194.83 382.205 1191.75 388.206 1190.8 396.26H1246C1245.68 388.522 1243.07 382.6 1238.18 378.494C1233.28 374.388 1226.97 372.335 1219.23 372.335ZM1397.34 433.687H1433.35C1427.98 447.9 1419.45 458.638 1407.76 465.903C1396.08 473.167 1383.44 476.799 1369.86 476.799C1348.86 476.799 1331.96 470.798 1319.17 458.796C1306.38 446.636 1299.98 430.134 1299.98 409.288C1299.98 389.39 1306.54 373.283 1319.64 360.965C1332.91 348.647 1349.1 342.488 1368.2 342.488C1389.21 342.488 1405.71 349.674 1417.71 364.044C1429.71 378.415 1435.08 397.05 1433.82 419.948H1339.3C1339.94 428.476 1343.02 435.029 1348.54 439.609C1354.23 444.189 1360.94 446.479 1368.68 446.479C1382.73 446.479 1392.29 442.215 1397.34 433.687ZM1368.2 372.335C1360.78 372.335 1354.39 374.309 1349.02 378.257C1343.81 382.205 1340.73 388.206 1339.78 396.26H1394.97C1394.66 388.522 1392.05 382.6 1387.15 378.494C1382.26 374.388 1375.94 372.335 1368.2 372.335ZM1454.46 301.982H1493.54V394.839L1536.42 346.278H1582.61L1537.13 395.076L1586.4 473.72H1540.68L1510.6 423.501L1493.54 441.741V473.72H1454.46V301.982ZM1685.81 433.687H1721.81C1716.44 447.9 1707.92 458.638 1696.23 465.903C1684.54 473.167 1671.91 476.799 1658.33 476.799C1637.33 476.799 1620.43 470.798 1607.64 458.796C1594.84 446.636 1588.45 430.134 1588.45 409.288C1588.45 389.39 1595 373.283 1608.11 360.965C1621.38 348.647 1637.56 342.488 1656.67 342.488C1677.67 342.488 1694.18 349.674 1706.18 364.044C1718.18 378.415 1723.55 397.05 1722.29 419.948H1627.77C1628.4 428.476 1631.48 435.029 1637.01 439.609C1642.69 444.189 1649.41 446.479 1657.14 446.479C1671.2 446.479 1680.75 442.215 1685.81 433.687ZM1656.67 372.335C1649.25 372.335 1642.85 374.309 1637.48 378.257C1632.27 382.205 1629.19 388.206 1628.24 396.26H1683.44C1683.12 388.522 1680.52 382.6 1675.62 378.494C1670.73 374.388 1664.41 372.335 1656.67 372.335ZM1782.01 346.278V363.097C1785.17 357.727 1790.22 353.148 1797.17 349.358C1804.12 345.41 1812.25 343.436 1821.57 343.436C1837.36 343.436 1848.41 347.857 1854.73 356.701C1861.2 365.545 1864.44 379.047 1864.44 397.207V473.72H1825.36V406.92C1825.36 402.498 1825.28 399.024 1825.12 396.497C1824.96 393.812 1824.49 390.812 1823.7 387.495C1823.07 384.179 1822.04 381.731 1820.62 380.152C1819.36 378.415 1817.46 376.915 1814.93 375.651C1812.41 374.388 1809.33 373.756 1805.7 373.756C1797.33 373.756 1791.25 376.52 1787.46 382.047C1783.82 387.574 1782.01 396.339 1782.01 408.341V473.72H1742.92V346.278H1782.01ZM1976.98 301.982H2016.07V473.72H1976.98V456.664C1973.03 463.297 1967.43 468.35 1960.16 471.825C1952.9 475.141 1945.48 476.799 1937.9 476.799C1921.16 476.799 1907.58 470.798 1897.15 458.796C1886.89 446.794 1881.76 430.529 1881.76 409.999C1881.76 389.469 1886.89 373.283 1897.15 361.439C1907.58 349.437 1921.16 343.436 1937.9 343.436C1945.48 343.436 1952.9 345.173 1960.16 348.647C1967.43 351.963 1973.03 356.938 1976.98 363.571V301.982ZM1950.69 373.756C1942.48 373.756 1935.69 376.994 1930.32 383.468C1924.95 389.785 1922.26 398.629 1922.26 409.999C1922.26 421.369 1924.95 430.292 1930.32 436.766C1935.69 443.241 1942.48 446.479 1950.69 446.479C1959.06 446.479 1965.85 443.557 1971.06 437.714C1976.27 431.713 1978.88 422.475 1978.88 409.999C1978.88 397.523 1976.27 388.364 1971.06 382.521C1965.85 376.678 1959.06 373.756 1950.69 373.756Z" fill="black"/>
<path fill-rule="evenodd" clip-rule="evenodd" d="M1278 931.848C1278 898.821 1262.05 872.745 1231.56 872.745C1200.96 872.745 1182.44 898.81 1182.44 931.582C1182.44 970.417 1204.29 990.029 1235.68 990.029C1250.98 990.029 1262.55 986.542 1271.3 981.644V955.836C1262.55 960.222 1252.52 962.932 1239.79 962.932C1227.32 962.932 1216.25 958.545 1214.84 943.32H1277.72C1277.72 941.632 1277.98 934.935 1277.98 931.837L1278 931.848ZM1214.52 919.588C1214.52 905.007 1223.38 898.954 1231.49 898.954C1239.34 898.954 1247.7 905.007 1247.7 919.588H1214.52ZM1132.85 872.757C1120.25 872.757 1112.15 878.687 1107.64 882.818L1105.97 874.822H1077.63V1025.26L1109.78 1018.43L1109.9 981.911C1114.53 985.265 1121.35 990.04 1132.68 990.04C1155.7 990.04 1176.65 971.516 1176.65 930.56C1176.53 893.146 1155.31 872.757 1132.8 872.757H1132.85ZM1125.14 961.655C1117.55 961.655 1113.05 958.945 1109.95 955.591L1109.83 907.727C1113.17 903.985 1117.81 901.408 1125.14 901.408C1136.84 901.408 1144.94 914.568 1144.94 931.459C1144.94 948.75 1136.97 961.655 1125.14 961.655ZM1033.39 865.149L1065.67 858.186V832L1033.39 838.841V865.149ZM1033.39 874.955H1065.67V987.841H1033.39V874.955ZM998.79 884.495L996.724 874.955H968.95V987.852H1001.1V911.337C1008.68 901.408 1021.54 903.207 1025.53 904.629V874.955C1021.42 873.412 1006.37 870.569 998.779 884.495H998.79ZM934.49 846.892L903.106 853.611L902.984 956.957C902.984 976.047 917.254 990.107 936.289 990.107C946.839 990.107 954.546 988.174 958.799 985.842V959.656C954.679 961.333 934.357 967.263 934.357 948.173V902.441H958.799V874.955H934.345L934.49 846.892ZM847.546 907.661C847.546 902.63 851.666 900.698 858.485 900.698C869.757 900.942 880.385 903.696 890.368 908.949V878.698C879.696 874.434 869.146 872.768 858.485 872.768C832.376 872.768 815.019 886.438 815.019 909.282C815.019 944.886 863.882 939.211 863.882 954.57C863.882 960.5 858.74 962.432 851.544 962.432C840.861 962.432 827.234 958.046 816.429 952.104V982.811C828.389 987.975 840.483 990.107 851.544 990.107C878.297 990.107 896.687 976.814 896.687 953.715C896.554 915.279 847.557 922.109 847.557 907.661H847.546Z" fill="#6772E5"/>
<path d="M18.7458 937.899C18.7458 944.474 20.2339 949.693 23.2324 953.536C26.253 957.389 30.4953 959.31 35.9813 959.31C40.9787 959.31 44.9211 957.167 47.7974 952.869C50.6959 948.549 52.1507 943.174 52.1507 936.744C52.1507 929.348 50.6626 923.707 47.7085 919.82C44.7767 915.911 40.69 913.956 35.4482 913.956C29.8178 913.956 25.6311 916 22.877 920.086C20.1229 924.151 18.7458 930.081 18.7458 937.899ZM18.7458 909.692H19.0568C23.8543 901.23 31.2726 896.987 41.3119 896.987C50.2517 896.987 57.6589 900.397 63.5226 907.204C69.3862 914.023 72.318 923.407 72.318 935.367C72.318 947.095 69.5861 956.723 64.1445 964.241C58.6917 971.737 50.9513 975.48 40.9121 975.48C31.1061 975.48 24.0986 971.649 19.9008 963.975H19.6342V1002.49H0V898.897H18.7458V909.692Z" fill="#6772E5"/>
<path d="M138.225 936.167C138.225 929.06 136.737 923.507 133.783 919.509C130.851 915.489 126.42 913.468 120.501 913.468C114.993 913.468 110.65 915.356 107.485 919.109C104.343 922.874 102.777 928.56 102.777 936.167C102.777 943.663 104.298 949.338 107.352 953.18C110.395 957.001 114.782 958.911 120.501 958.911C126.387 958.911 130.818 956.934 133.783 952.958C136.737 948.994 138.225 943.397 138.225 936.167ZM158.392 936.167C158.392 948.372 154.894 957.978 147.909 964.996C140.912 971.993 131.784 975.48 120.501 975.48C109.418 975.48 100.333 972.004 93.2261 965.041C86.1409 958.089 82.6094 948.461 82.6094 936.167C82.6094 923.818 86.1409 914.212 93.2261 907.337C100.333 900.441 109.418 896.987 120.501 896.987C131.873 896.987 141.023 900.519 147.953 907.56C154.905 914.611 158.392 924.151 158.392 936.167Z" fill="#6772E5"/>
<path d="M248.404 973.482H228.237L216.598 919.066H216.332L204.693 973.482H184.482L163.426 898.898H184.348L195.987 952.471H196.253L206.737 898.898H226.504L237.743 952.471H238.009L249.648 898.898H269.815L248.404 973.482Z" fill="#6772E5"/>
<path d="M325.478 928.793C325.056 924.062 323.501 920.253 320.814 917.377C318.115 914.512 314.617 913.068 310.33 913.068C301.024 913.068 295.716 918.31 294.383 928.793H325.478ZM344.846 951.67C342.558 959.377 338.471 965.263 332.585 969.35C326.689 973.436 319.848 975.48 312.063 975.48C299.769 975.48 290.385 972.093 283.9 965.307C277.436 958.533 274.216 949.138 274.216 937.144C274.216 925.095 277.248 915.4 283.322 908.048C289.419 900.674 298.514 896.987 310.597 896.987C321.458 896.987 330.02 900.441 336.272 907.337C342.514 914.212 345.645 924.44 345.645 938.033V941.542H293.85C294.294 947.583 296.071 952.136 299.181 955.179C302.29 958.2 306.51 959.71 311.841 959.71C315.039 959.71 317.793 958.977 320.103 957.489C322.435 956.012 323.946 954.069 324.634 951.67H344.846Z" fill="#6772E5"/>
<path d="M359.357 898.897H378.148V911.824H378.414C380.724 906.938 383.489 903.251 386.721 900.763C389.942 898.253 394.006 896.987 398.892 896.987C400.158 896.987 401.424 897.076 402.668 897.254V917.155C401.747 916.977 399.881 916.888 397.071 916.888C390.941 916.888 386.388 918.376 383.434 921.33C380.469 924.262 378.992 928.726 378.992 934.701V973.481H359.357V898.897Z" fill="#6772E5"/>
<path d="M459.751 928.793C459.329 924.062 457.774 920.253 455.086 917.377C452.388 914.512 448.89 913.068 444.603 913.068C435.297 913.068 429.988 918.31 428.656 928.793H459.751ZM479.118 951.67C476.831 959.377 472.744 965.263 466.858 969.35C460.961 973.436 454.12 975.48 446.335 975.48C434.042 975.48 424.658 972.093 418.172 965.307C411.709 958.533 408.488 949.138 408.488 937.144C408.488 925.095 411.52 915.4 417.595 908.048C423.691 900.674 432.787 896.987 444.869 896.987C455.73 896.987 464.293 900.441 470.545 907.337C476.786 914.212 479.918 924.44 479.918 938.033V941.542H428.123C428.567 947.583 430.344 952.136 433.453 955.179C436.563 958.2 440.783 959.71 446.113 959.71C449.312 959.71 452.066 958.977 454.376 957.489C456.708 956.012 458.218 954.069 458.907 951.67H479.118Z" fill="#6772E5"/>
<path d="M509.353 936.744C509.353 943.318 510.785 948.727 513.662 952.958C516.527 957.2 520.458 959.31 525.433 959.31C530.942 959.31 535.206 957.378 538.227 953.491C541.269 949.582 542.802 944.385 542.802 937.899C542.802 929.97 541.381 923.995 538.538 919.997C535.717 915.977 531.53 913.956 525.966 913.956C520.725 913.956 516.638 915.977 513.706 919.997C510.796 923.995 509.353 929.581 509.353 936.744ZM561.548 973.481H542.402V964.108H542.136C537.605 971.693 530.386 975.48 520.502 975.48C510.641 975.48 502.956 971.815 497.448 964.463C491.94 957.122 489.185 947.427 489.185 935.367C489.185 923.551 492.073 914.211 497.848 907.337C503.645 900.441 511.063 896.987 520.103 896.987C529.664 896.987 536.872 900.874 541.736 908.625H542.002V872.866H561.548V973.481Z" fill="#6772E5"/>
<path d="M670.671 936.744C670.671 929.437 669.183 923.806 666.229 919.864C663.297 915.933 659.21 913.956 653.968 913.956C648.305 913.956 644.084 916.022 641.308 920.131C638.521 924.217 637.133 930.148 637.133 937.899C637.133 944.684 638.687 949.959 641.797 953.713C644.928 957.444 649.171 959.31 654.501 959.31C659.232 959.31 663.119 957.3 666.14 953.269C669.16 949.215 670.671 943.707 670.671 936.744ZM638.021 908.625H638.287C643.107 900.874 650.292 896.987 659.832 896.987C668.86 896.987 676.279 900.43 682.087 907.293C687.917 914.134 690.838 923.495 690.838 935.367C690.838 947.272 688.062 956.945 682.531 964.374C677.023 971.781 669.316 975.48 659.432 975.48C649.626 975.48 642.441 971.693 637.888 964.108H637.621V973.481H618.387V872.866H638.021V908.625Z" fill="#6772E5"/>
<path d="M743.591 972.238C739.915 982.833 737.128 989.884 735.24 993.383C733.374 996.903 731.087 999.468 728.399 1001.07C725.7 1002.69 721.169 1003.51 714.806 1003.51C711.519 1003.51 708.554 1003.36 705.922 1003.07V987.519C707.31 987.697 709.087 987.786 711.252 987.786C714.062 987.786 716.372 987.186 718.182 986.009C719.981 984.82 721.514 981.711 722.758 976.68L695.083 898.898H716.983L732.93 953.848H733.285L748.522 898.898H769.267L743.591 972.238Z" fill="#6772E5"/>
</svg>
