<svg xmlns="http://www.w3.org/2000/svg" viewBox="0 0 512 512">
  <circle cx="256" cy="256" r="256" fill="#ffffff" />
  <path
    fill="#000000"
    d="M105.502 320.291c-25.238 0-51.116-9.827-68.752-25.771l19.849-40.009c16.648 14.732 37.568 22.741 58.053 22.741 16.734 0 28.345-5.784 28.345-16.678 0-11.57-16.062-15.855-36.465-20.75-31.812-7.631-62.311-18.705-62.311-56.177 0-37.993 34.095-60.842 74.834-60.842 24.677 0 47.184 7.389 63.607 21.178l-19.537 40.365c-12.439-10.889-28.865-17.383-44.46-17.383-15.423 0-27.936 5.17-27.936 15.857 0 10.982 15.698 14.519 35.688 19.175 32.14 7.49 63.758 18.998 63.758 58.221 0 40.446-33.537 60.073-84.673 60.073Z"
  />
  <path
    fill="#000000"
    d="m228.022 214.398 16.145 106.229h1.094l20.182-106.229h46.715l19.699 106.229h1.085l16.419-106.229h48.451L367.4 369.163h-58.339l-20.161-96.69h-1.09l-20.913 96.69h-57.274l-30.111-154.765h48.51Z"
  />
  <path
    fill="#35a4e5"
    d="M372.599 287.653h-15.613v81.51H309.88V214.398h76.434c39.168 0 66.936 14.018 66.936 53.41 0 25.005-11.318 40.804-31.859 48.292l35.441 53.063h-53.738l-30.495-81.51Zm7.413-36.187c15.99 0 25.86 4.102 25.86 17.326 0 13.424-9.87 17.696-25.86 17.696h-23.026v-35.022h23.026Z"
  />
</svg>
